<svg viewBox="0 0 389.6666666666667 98.0587593714396" preserveAspectRatio="xMidYMid meet" class="css-g5ufxp" id="fffbfaff">
  <defs id="SvgjsDefs1168"/>
  <g id="SvgjsG1169" featurekey="2ou6gm-0" transform="matrix(1.736111111111111,0,0,1.736111111111111,20,17.329594360457527)" fill="#fff">
    <title xmlns="http://www.w3.org/2000/svg">e commerce_22</title>
    <path xmlns="http://www.w3.org/2000/svg" d="M20,40.5a3,3,0,1,0,3,3A3,3,0,0,0,20,40.5Zm0,4a1,1,0,1,1,1-1A1,1,0,0,1,20,44.5Zm13-4a3,3,0,1,0,3,3A3,3,0,0,0,33,40.5Zm0,4a1,1,0,1,1,1-1A1,1,0,0,1,33,44.5Zm15-25a8,8,0,0,0-8-8H36.64a13,13,0,0,0-25.28,0H8a8,8,0,0,0,0,16H12l3.43,10.32a1,1,0,0,0,.95.68H35.5a1,1,0,0,0,.93-.64l4-10.38A8,8,0,0,0,48,19.5Zm-13.18,17H17.05l-4.33-13H39.87ZM41.3,25.36l1-2.5a1,1,0,0,0-.93-1.36H12.05l-1.43-4.32a1,1,0,0,0-.95-.68h-5a1,1,0,0,0,0,2H9l1.43,4.31v0l.89,2.67H8a6,6,0,0,1,0-12h4.18a1,1,0,0,0,1-.83,11,11,0,0,1,21.66,0,1,1,0,0,0,1,.83H40a6,6,0,0,1,1.3,11.86Z"/>
  </g>
  <g id="SvgjsG1170" featurekey="kZnDdN-0" transform="matrix(3.637024928758846,0,0,3.637024928758846,118.63557077919684,12.050735577900102)" fill="#fff">
    <path d="M7.94 12.3 c1.84 0.42 3.04 1.94 3.04 3.7 c0 2.46 -1.6 4 -5.06 4 l-4.72 0 l0 -14 l4.78 0 c2.74 0 4.1 1.56 4.1 3.38 c0 1.34 -0.76 2.42 -2.14 2.92 z M5.86 7.48 l-3 0 l0 4.28 l3 0 c1.6 0 2.58 -0.88 2.58 -2.16 c0 -1.32 -0.92 -2.12 -2.58 -2.12 z M5.86 18.52 c2.4 0 3.46 -0.98 3.46 -2.66 c0 -1.46 -1.06 -2.72 -3.36 -2.72 l-3.1 0 l0 5.38 l3 0 z M14.54 18.44 l6.28 0 l0 1.56 l-7.94 0 l0 -14 l1.66 0 l0 12.44 z M24.479999999999997 6 l0 14 l-1.66 0 l0 -14 l1.66 0 z M31.18 5.76 c2.18 0 3.78 1.44 4.38 2.94 l-1.26 0.68 c-0.64 -1.28 -1.66 -2.12 -3.12 -2.12 c-1.54 0 -2.6 0.88 -2.6 2.1 c0 1.14 0.72 1.86 2.24 2.44 l1.02 0.38 c2.52 0.94 4.1 2.02 4.1 4.24 c0 2.4 -2.3 3.88 -4.68 3.88 s-4.34 -1.44 -4.88 -3.44 l1.34 -0.64 c0.48 1.48 1.74 2.56 3.54 2.56 c1.6 0 2.96 -0.92 2.96 -2.34 c0 -1.6 -1.12 -2.2 -2.78 -2.84 l-1.04 -0.4 c-2.12 -0.8 -3.48 -1.9 -3.48 -3.88 c0 -2.04 1.8 -3.56 4.26 -3.56 z M42.14 5.76 c2.18 0 3.78 1.44 4.38 2.94 l-1.26 0.68 c-0.64 -1.28 -1.66 -2.12 -3.12 -2.12 c-1.54 0 -2.6 0.88 -2.6 2.1 c0 1.14 0.72 1.86 2.24 2.44 l1.02 0.38 c2.52 0.94 4.1 2.02 4.1 4.24 c0 2.4 -2.3 3.88 -4.68 3.88 s-4.34 -1.44 -4.88 -3.44 l1.34 -0.64 c0.48 1.48 1.74 2.56 3.54 2.56 c1.6 0 2.96 -0.92 2.96 -2.34 c0 -1.6 -1.12 -2.2 -2.78 -2.84 l-1.04 -0.4 c-2.12 -0.8 -3.48 -1.9 -3.48 -3.88 c0 -2.04 1.8 -3.56 4.26 -3.56 z M50.46 6 l0 14 l-1.66 0 l0 -14 l1.66 0 z M61.120000000000005 7.5 l-6.56 0 l0 4.74 l5.42 0 l0 1.42 l-5.42 0 l0 6.34 l-1.7 0 l0 -14 l8.26 0 l0 1.5 z M74.52000000000001 6 l-5.22 7.54 l0 6.46 l-1.66 0 l0 -6.46 l-5.22 -7.54 l1.9 0 l4.14 6.02 l4.16 -6.02 l1.9 0 z"/>
  </g>
</svg>
